<?xml version="1.0" encoding="UTF-8" standalone="no"?>
<!DOCTYPE svg PUBLIC "-//W3C//DTD SVG 1.1//EN" "http://www.w3.org/Graphics/SVG/1.1/DTD/svg11.dtd">
<svg version="1.1" xmlns="http://www.w3.org/2000/svg" xmlns:xlink="http://www.w3.org/1999/xlink" preserveAspectRatio="xMidYMid meet" viewBox="0 0 312 312" width="312" height="312"><defs><path d="M205.25 43.5L205.26 43.17L205.28 42.84L205.31 42.52L205.35 42.2L205.41 41.89L205.48 41.58L205.56 41.27L205.66 40.97L205.76 40.68L205.88 40.39L206.01 40.1L206.14 39.82L206.29 39.55L206.45 39.29L206.62 39.03L206.79 38.78L206.98 38.53L207.18 38.29L207.38 38.07L207.59 37.84L207.82 37.63L208.04 37.43L208.28 37.23L208.53 37.04L208.78 36.87L209.04 36.7L209.3 36.54L209.57 36.39L209.85 36.26L210.14 36.13L210.43 36.01L210.72 35.91L211.02 35.81L211.33 35.73L211.64 35.66L211.95 35.6L212.27 35.56L212.59 35.53L212.92 35.51L213.25 35.5L245.25 35.5L245.58 35.51L245.91 35.53L246.23 35.56L246.55 35.6L246.86 35.66L247.17 35.73L247.48 35.81L247.78 35.91L248.07 36.01L248.36 36.13L248.65 36.26L248.93 36.39L249.2 36.54L249.46 36.7L249.72 36.87L249.97 37.04L250.22 37.23L250.46 37.43L250.68 37.63L250.91 37.84L251.12 38.07L251.32 38.29L251.52 38.53L251.71 38.78L251.88 39.03L252.05 39.29L252.21 39.55L252.36 39.82L252.49 40.1L252.62 40.39L252.74 40.68L252.84 40.97L252.94 41.27L253.02 41.58L253.09 41.89L253.15 42.2L253.19 42.52L253.22 42.84L253.24 43.17L253.25 43.5L253.25 127.5L285.25 163.5L253.25 163.5L253.25 275.5L182.02 275.5L182.02 275.48L182.02 275.12L182.02 197.42L182.02 197.07L182 196.72L181.96 196.37L181.92 196.02L181.86 195.68L181.78 195.35L181.7 195.02L181.6 194.7L181.49 194.38L181.37 194.06L181.24 193.76L181.1 193.46L180.95 193.16L180.79 192.88L180.61 192.6L180.43 192.33L180.24 192.06L180.04 191.81L179.82 191.56L179.6 191.32L179.38 191.09L179.14 190.87L178.89 190.66L178.64 190.46L178.38 190.27L178.11 190.08L177.84 189.91L177.56 189.75L177.27 189.61L176.98 189.47L176.68 189.34L176.38 189.23L176.06 189.13L175.75 189.04L175.43 188.97L175.1 188.9L174.78 188.85L174.44 188.82L174.11 188.8L173.77 188.79L140.73 188.79L140.39 188.8L140.06 188.82L139.72 188.85L139.4 188.9L139.07 188.97L138.75 189.04L138.44 189.13L138.12 189.23L137.82 189.34L137.52 189.47L137.23 189.61L136.94 189.75L136.66 189.91L136.39 190.08L136.12 190.27L135.86 190.46L135.61 190.66L135.36 190.87L135.12 191.09L134.9 191.32L134.68 191.56L134.46 191.81L134.26 192.06L134.07 192.33L133.89 192.6L133.71 192.88L133.55 193.16L133.4 193.46L133.26 193.76L133.13 194.06L133.01 194.38L132.9 194.7L132.8 195.02L132.72 195.35L132.64 195.68L132.58 196.02L132.54 196.37L132.5 196.72L132.48 197.07L132.48 197.42L132.48 275.12L132.48 275.48L132.48 275.5L61.25 275.5L61.25 163.5L29.25 163.5L157.25 19.5L205.25 73.5L205.25 43.5Z" id="a7nWM6iLGt"></path></defs><g><g><g><use xlink:href="#a7nWM6iLGt" opacity="1" fill="#000000" fill-opacity="0.98"></use></g></g></g></svg>