<?xml version="1.0" encoding="UTF-8" standalone="no"?>
<!DOCTYPE svg PUBLIC "-//W3C//DTD SVG 1.1//EN" "http://www.w3.org/Graphics/SVG/1.1/DTD/svg11.dtd">
<svg version="1.1" xmlns="http://www.w3.org/2000/svg" xmlns:xlink="http://www.w3.org/1999/xlink" preserveAspectRatio="xMidYMid meet" viewBox="219.49999999999997 141.5 261.5 261.5" width="256" height="256"><defs><path d="M334.53 144.34L338.72 144.77L342.87 145.36L346.96 146.11L350.99 147.02L354.96 148.09L358.87 149.3L362.71 150.67L366.48 152.17L370.18 153.82L373.79 155.61L377.33 157.53L380.78 159.58L384.15 161.76L387.42 164.07L390.6 166.49L393.68 169.03L396.66 171.69L399.54 174.46L402.31 177.34L404.97 180.32L407.51 183.4L409.93 186.58L412.24 189.85L414.42 193.22L416.47 196.67L418.39 200.21L420.18 203.82L421.83 207.52L423.33 211.29L424.7 215.13L425.91 219.04L426.98 223.01L427.89 227.04L428.64 231.13L429.23 235.28L429.66 239.47L429.91 243.71L430 248L429.91 252.29L429.66 256.53L429.23 260.72L428.64 264.87L427.89 268.96L426.98 272.99L425.91 276.96L424.7 280.87L423.33 284.71L421.83 288.48L420.18 292.18L418.39 295.79L416.47 299.33L414.42 302.78L412.32 306.03L478 371.72L449.72 400L384.03 334.32L380.78 336.42L377.33 338.47L373.79 340.39L370.18 342.18L366.48 343.83L362.71 345.33L358.87 346.7L354.96 347.91L350.99 348.98L346.96 349.89L342.87 350.64L338.72 351.23L334.53 351.66L330.29 351.91L326 352L321.71 351.91L317.47 351.66L313.28 351.23L309.13 350.64L305.04 349.89L301.01 348.98L297.04 347.91L293.13 346.7L289.29 345.33L285.52 343.83L281.82 342.18L278.21 340.39L274.67 338.47L271.22 336.42L267.85 334.24L264.58 331.93L261.4 329.51L258.32 326.97L255.34 324.31L252.46 321.54L249.69 318.66L247.03 315.68L244.49 312.6L242.07 309.42L239.76 306.15L237.58 302.78L235.53 299.33L233.61 295.79L231.82 292.18L230.17 288.48L228.67 284.71L227.3 280.87L226.09 276.96L225.02 272.99L224.11 268.96L223.36 264.87L222.77 260.72L222.34 256.53L222.09 252.29L222 248L222.09 243.71L222.34 239.47L222.77 235.28L223.36 231.13L224.11 227.04L225.02 223.01L226.09 219.04L227.3 215.13L228.67 211.29L230.17 207.52L231.82 203.82L233.61 200.21L235.53 196.67L237.58 193.22L239.76 189.85L242.07 186.58L244.49 183.4L247.03 180.32L249.69 177.34L252.46 174.46L255.34 171.69L258.32 169.03L261.4 166.49L264.58 164.07L267.85 161.76L271.22 159.58L274.67 157.53L278.21 155.61L281.82 153.82L285.52 152.17L289.29 150.67L293.13 149.3L297.04 148.09L301.01 147.02L305.04 146.11L309.13 145.36L313.28 144.77L317.47 144.34L321.71 144.09L326 144L330.29 144.09L334.53 144.34ZM320.74 184.04L318.15 184.31L315.59 184.67L313.07 185.13L310.58 185.69L308.13 186.35L305.72 187.1L303.35 187.94L301.02 188.87L298.74 189.89L296.51 190.99L294.33 192.18L292.2 193.44L290.12 194.79L288.1 196.21L286.14 197.71L284.24 199.28L282.4 200.92L280.62 202.62L278.92 204.4L277.28 206.24L275.71 208.14L274.21 210.1L272.79 212.12L271.44 214.2L270.18 216.33L268.99 218.51L267.89 220.74L266.87 223.02L265.94 225.35L265.1 227.72L264.35 230.13L263.69 232.58L263.13 235.07L262.67 237.59L262.31 240.15L262.04 242.74L261.88 245.35L261.83 248L261.88 250.65L262.04 253.26L262.31 255.85L262.67 258.41L263.13 260.93L263.69 263.42L264.35 265.87L265.1 268.28L265.94 270.65L266.87 272.98L267.89 275.26L268.99 277.49L270.18 279.67L271.44 281.8L272.79 283.88L274.21 285.9L275.71 287.86L277.28 289.76L278.92 291.6L280.62 293.38L282.4 295.08L284.24 296.72L286.14 298.29L288.1 299.79L290.12 301.21L292.2 302.56L294.33 303.82L296.51 305.01L298.74 306.11L301.02 307.13L303.35 308.06L305.72 308.9L308.13 309.65L310.58 310.31L313.07 310.87L315.59 311.33L318.15 311.69L320.74 311.96L323.35 312.12L326 312.17L328.65 312.12L331.26 311.96L333.85 311.69L336.41 311.33L338.93 310.87L341.42 310.31L343.87 309.65L346.28 308.9L348.65 308.06L350.98 307.13L353.26 306.11L355.49 305.01L357.67 303.82L359.8 302.56L361.88 301.21L363.9 299.79L365.86 298.29L367.76 296.72L369.6 295.08L371.38 293.38L373.08 291.6L374.72 289.76L376.29 287.86L377.79 285.9L379.21 283.88L380.56 281.8L381.82 279.67L383.01 277.49L384.11 275.26L385.13 272.98L386.06 270.65L386.9 268.28L387.65 265.87L388.31 263.42L388.87 260.93L389.33 258.41L389.69 255.85L389.96 253.26L390.12 250.65L390.17 248L390.12 245.35L389.96 242.74L389.69 240.15L389.33 237.59L388.87 235.07L388.31 232.58L387.65 230.13L386.9 227.72L386.06 225.35L385.13 223.02L384.11 220.74L383.01 218.51L381.82 216.33L380.56 214.2L379.21 212.12L377.79 210.1L376.29 208.14L374.72 206.24L373.08 204.4L371.38 202.62L369.6 200.92L367.76 199.28L365.86 197.71L363.9 196.21L361.88 194.79L359.8 193.44L357.67 192.18L355.49 190.99L353.26 189.89L350.98 188.87L348.65 187.94L346.28 187.1L343.87 186.35L341.42 185.69L338.93 185.13L336.41 184.67L333.85 184.31L331.26 184.04L328.65 183.88L326 183.83L323.35 183.88L320.74 184.04Z" id="b6ot8vxjQK"></path></defs><g><g><use xlink:href="#b6ot8vxjQK" opacity="1" fill="#000000" fill-opacity="1"></use></g></g></svg>