<?xml version="1.0" encoding="UTF-8" standalone="no"?>
<!DOCTYPE svg PUBLIC "-//W3C//DTD SVG 1.1//EN" "http://www.w3.org/Graphics/SVG/1.1/DTD/svg11.dtd">
<svg version="1.1" xmlns="http://www.w3.org/2000/svg" xmlns:xlink="http://www.w3.org/1999/xlink" preserveAspectRatio="xMidYMid meet" viewBox="307.99999999999983 108.99999999999999 34.00000000000017 136.47422680412387" width="30" height="132.47"><defs><path d="M340 125C340 133.28 333.28 140 325 140C316.72 140 310 133.28 310 125C310 116.72 316.72 110 325 110C333.28 110 340 116.72 340 125Z" id="nx3M3tELI"></path><path d="M340 176.24C340 184.52 333.28 191.24 325 191.24C316.72 191.24 310 184.52 310 176.24C310 167.96 316.72 161.24 325 161.24C333.28 161.24 340 167.96 340 176.24Z" id="i5nPgrgQ84"></path><path d="M340 227.47C340 235.75 333.28 242.47 325 242.47C316.72 242.47 310 235.75 310 227.47C310 219.2 316.72 212.47 325 212.47C333.28 212.47 340 219.2 340 227.47Z" id="c3pjJsIMXm"></path></defs><g><g><g><filter id="shadow12185641" x="301" y="101" width="48" height="49" filterUnits="userSpaceOnUse" primitiveUnits="userSpaceOnUse"><feFlood></feFlood><feComposite in2="SourceAlpha" operator="in"></feComposite><feGaussianBlur stdDeviation="1"></feGaussianBlur><feOffset dx="0" dy="1" result="afterOffset"></feOffset><feFlood flood-color="#000000" flood-opacity="0.5"></feFlood><feComposite in2="afterOffset" operator="in"></feComposite><feMorphology operator="dilate" radius="1"></feMorphology><feComposite in2="SourceAlpha" operator="out"></feComposite></filter><path d="M340 125C340 133.28 333.28 140 325 140C316.72 140 310 133.28 310 125C310 116.72 316.72 110 325 110C333.28 110 340 116.72 340 125Z" id="ch0Y0APkG" fill="white" fill-opacity="1" filter="url(#shadow12185641)"></path></g><use xlink:href="#nx3M3tELI" opacity="1" fill="#000000" fill-opacity="1"></use><g><use xlink:href="#nx3M3tELI" opacity="1" fill-opacity="0" stroke="#000000" stroke-width="2" stroke-opacity="1"></use></g><g></g></g><g><g><filter id="shadow10883684" x="301" y="152.24" width="48" height="49" filterUnits="userSpaceOnUse" primitiveUnits="userSpaceOnUse"><feFlood></feFlood><feComposite in2="SourceAlpha" operator="in"></feComposite><feGaussianBlur stdDeviation="1"></feGaussianBlur><feOffset dx="0" dy="1" result="afterOffset"></feOffset><feFlood flood-color="#000000" flood-opacity="0.5"></feFlood><feComposite in2="afterOffset" operator="in"></feComposite><feMorphology operator="dilate" radius="1"></feMorphology><feComposite in2="SourceAlpha" operator="out"></feComposite></filter><path d="M340 176.24C340 184.52 333.28 191.24 325 191.24C316.72 191.24 310 184.52 310 176.24C310 167.96 316.72 161.24 325 161.24C333.28 161.24 340 167.96 340 176.24Z" id="ap0FIRbKt" fill="white" fill-opacity="1" filter="url(#shadow10883684)"></path></g><use xlink:href="#i5nPgrgQ84" opacity="1" fill="#000000" fill-opacity="1"></use><g><use xlink:href="#i5nPgrgQ84" opacity="1" fill-opacity="0" stroke="#000000" stroke-width="2" stroke-opacity="1"></use></g><g></g></g><g><g><filter id="shadow8461956" x="301" y="203.47" width="48" height="49" filterUnits="userSpaceOnUse" primitiveUnits="userSpaceOnUse"><feFlood></feFlood><feComposite in2="SourceAlpha" operator="in"></feComposite><feGaussianBlur stdDeviation="1"></feGaussianBlur><feOffset dx="0" dy="1" result="afterOffset"></feOffset><feFlood flood-color="#000000" flood-opacity="0.5"></feFlood><feComposite in2="afterOffset" operator="in"></feComposite><feMorphology operator="dilate" radius="1"></feMorphology><feComposite in2="SourceAlpha" operator="out"></feComposite></filter><path d="M340 227.47C340 235.75 333.28 242.47 325 242.47C316.72 242.47 310 235.75 310 227.47C310 219.2 316.72 212.47 325 212.47C333.28 212.47 340 219.2 340 227.47Z" id="e1gSH7J5vU" fill="white" fill-opacity="1" filter="url(#shadow8461956)"></path></g><use xlink:href="#c3pjJsIMXm" opacity="1" fill="#000000" fill-opacity="1"></use><g><use xlink:href="#c3pjJsIMXm" opacity="1" fill-opacity="0" stroke="#000000" stroke-width="2" stroke-opacity="1"></use></g><g></g></g></g></svg>